<svg width="963" height="488" viewBox="0 0 963 488" fill="none" xmlns="http://www.w3.org/2000/svg">
<path d="M783.7 245.429C783.004 248.648 779.438 250.759 775.736 250.145C772.033 249.531 769.596 246.424 770.293 243.206C770.989 239.988 774.555 237.877 778.257 238.491C781.948 239.102 784.397 242.211 783.7 245.429Z" stroke="#04D361" stroke-width="3" stroke-miterlimit="10" stroke-linecap="round" stroke-linejoin="round"/>
<path d="M780.974 249.142L784.811 254.047" stroke="#04D361" stroke-width="3" stroke-miterlimit="10" stroke-linecap="round" stroke-linejoin="round"/>
<path d="M305.332 130.918L311.059 138.218" stroke="#04D361" stroke-width="3" stroke-miterlimit="10" stroke-linecap="round" stroke-linejoin="round"/>
<path d="M312.385 132.088L304.006 137.049" stroke="#04D361" stroke-width="3" stroke-miterlimit="10" stroke-linecap="round" stroke-linejoin="round"/>
<path d="M911.709 399.298L917.435 406.598" stroke="#04D361" stroke-width="3" stroke-miterlimit="10" stroke-linecap="round" stroke-linejoin="round"/>
<path d="M918.762 400.468L910.382 405.429" stroke="#04D361" stroke-width="3" stroke-miterlimit="10" stroke-linecap="round" stroke-linejoin="round"/>
<path d="M51.72 48.6797L57.4464 55.98" stroke="#04D361" stroke-width="3" stroke-miterlimit="10" stroke-linecap="round" stroke-linejoin="round"/>
<path d="M58.7729 49.8492L50.3935 54.8105" stroke="#04D361" stroke-width="3" stroke-miterlimit="10" stroke-linecap="round" stroke-linejoin="round"/>
<path d="M670.413 335.649L676.14 342.949" stroke="#04D361" stroke-width="3" stroke-miterlimit="10" stroke-linecap="round" stroke-linejoin="round"/>
<path d="M677.466 336.818L669.087 341.78" stroke="#04D361" stroke-width="3" stroke-miterlimit="10" stroke-linecap="round" stroke-linejoin="round"/>
<path d="M231.995 299.498L230.119 308.168" stroke="#04D361" stroke-width="3" stroke-miterlimit="10" stroke-linecap="round" stroke-linejoin="round"/>
<path d="M236.057 304.661L226.071 303.005" stroke="#04D361" stroke-width="3" stroke-miterlimit="10" stroke-linecap="round" stroke-linejoin="round"/>
<path d="M143.943 167.135C143.315 170.039 140.094 171.955 136.742 171.399C133.401 170.845 131.19 168.039 131.82 165.125C132.448 162.222 135.67 160.306 139.022 160.861C142.371 161.427 144.571 164.232 143.943 167.135Z" stroke="#04D361" stroke-width="3" stroke-miterlimit="10" stroke-linecap="round" stroke-linejoin="round"/>
<path d="M932.673 213.608C932.044 216.512 928.823 218.428 925.471 217.872C922.131 217.318 919.919 214.512 920.55 211.598C921.178 208.695 924.399 206.779 927.751 207.334C931.101 207.9 933.301 210.705 932.673 213.608Z" stroke="#04D361" stroke-width="3" stroke-miterlimit="10" stroke-linecap="round" stroke-linejoin="round"/>
<path d="M582.181 105.063C581.553 107.966 578.332 109.882 574.98 109.327C571.64 108.773 569.428 105.966 570.058 103.053C570.687 100.149 573.908 98.233 577.26 98.7888C580.61 99.3547 582.81 102.159 582.181 105.063Z" stroke="#04D361" stroke-width="3" stroke-miterlimit="10" stroke-linecap="round" stroke-linejoin="round"/>
<path d="M556.052 416.528C555.424 419.431 552.203 421.347 548.851 420.792C545.511 420.238 543.299 417.431 543.929 414.518C544.558 411.614 547.779 409.698 551.131 410.254C554.48 410.82 556.68 413.624 556.052 416.528Z" stroke="#04D361" stroke-width="3" stroke-miterlimit="10" stroke-linecap="round" stroke-linejoin="round"/>
<path d="M120.651 367.124C121.877 366.856 122.551 365.711 122.156 364.565C121.761 363.418 120.447 362.706 119.22 362.974C117.994 363.241 117.321 364.387 117.716 365.533C118.111 366.679 119.425 367.391 120.651 367.124Z" fill="#9871F5"/>
<path d="M136.766 363.256C137.992 362.988 138.666 361.843 138.271 360.697C137.876 359.551 136.562 358.838 135.336 359.106C134.11 359.373 133.436 360.519 133.831 361.665C134.226 362.811 135.54 363.523 136.766 363.256Z" fill="#9871F5"/>
<path d="M152.87 359.391C154.096 359.124 154.77 357.978 154.375 356.832C153.98 355.686 152.666 354.973 151.44 355.241C150.214 355.508 149.54 356.654 149.935 357.8C150.33 358.946 151.644 359.658 152.87 359.391Z" fill="#9871F5"/>
<path d="M168.987 355.523C170.213 355.256 170.887 354.11 170.492 352.964C170.097 351.818 168.783 351.106 167.557 351.373C166.331 351.64 165.657 352.786 166.052 353.932C166.447 355.078 167.761 355.79 168.987 355.523Z" fill="#9871F5"/>
<path d="M185.091 351.658C186.317 351.391 186.991 350.245 186.596 349.099C186.201 347.953 184.887 347.241 183.66 347.508C182.434 347.775 181.761 348.921 182.156 350.067C182.551 351.213 183.865 351.926 185.091 351.658Z" fill="#9871F5"/>
<path d="M201.207 347.791C202.433 347.523 203.107 346.377 202.712 345.231C202.317 344.085 201.003 343.373 199.777 343.64C198.551 343.908 197.877 345.053 198.272 346.2C198.667 347.346 199.981 348.058 201.207 347.791Z" fill="#9871F5"/>
<path d="M125.034 381.122C126.26 380.855 126.934 379.709 126.539 378.563C126.144 377.417 124.83 376.705 123.604 376.972C122.378 377.24 121.704 378.385 122.099 379.531C122.494 380.677 123.808 381.39 125.034 381.122Z" fill="#9871F5"/>
<path d="M141.15 377.255C142.376 376.987 143.05 375.841 142.655 374.695C142.26 373.549 140.946 372.837 139.72 373.104C138.494 373.372 137.82 374.518 138.215 375.664C138.61 376.81 139.924 377.522 141.15 377.255Z" fill="#9871F5"/>
<path d="M157.255 373.39C158.481 373.122 159.154 371.977 158.759 370.83C158.364 369.684 157.05 368.972 155.824 369.239C154.598 369.507 153.924 370.653 154.319 371.799C154.714 372.945 156.029 373.657 157.255 373.39Z" fill="#9871F5"/>
<path d="M173.371 369.522C174.597 369.255 175.27 368.109 174.875 366.963C174.48 365.817 173.166 365.104 171.94 365.372C170.714 365.639 170.04 366.785 170.435 367.931C170.83 369.077 172.145 369.789 173.371 369.522Z" fill="#9871F5"/>
<path d="M189.475 365.657C190.701 365.39 191.374 364.244 190.979 363.098C190.584 361.952 189.27 361.24 188.044 361.507C186.818 361.774 186.144 362.92 186.539 364.066C186.934 365.212 188.249 365.924 189.475 365.657Z" fill="#9871F5"/>
<path d="M205.591 361.789C206.817 361.522 207.49 360.376 207.095 359.23C206.7 358.084 205.386 357.372 204.16 357.639C202.934 357.906 202.26 359.052 202.655 360.198C203.05 361.344 204.364 362.057 205.591 361.789Z" fill="#9871F5"/>
<path d="M129.421 395.131C130.647 394.864 131.321 393.718 130.926 392.572C130.531 391.426 129.217 390.714 127.991 390.981C126.765 391.248 126.091 392.394 126.486 393.54C126.881 394.686 128.195 395.399 129.421 395.131Z" fill="#9871F5"/>
<path d="M145.537 391.264C146.763 390.996 147.437 389.85 147.042 388.704C146.647 387.558 145.333 386.846 144.106 387.113C142.88 387.381 142.207 388.527 142.602 389.673C142.997 390.819 144.311 391.531 145.537 391.264Z" fill="#9871F5"/>
<path d="M161.641 387.399C162.867 387.131 163.541 385.985 163.146 384.839C162.751 383.693 161.437 382.981 160.211 383.248C158.985 383.516 158.311 384.662 158.706 385.808C159.101 386.954 160.415 387.666 161.641 387.399Z" fill="#9871F5"/>
<path d="M177.758 383.531C178.984 383.263 179.657 382.118 179.262 380.972C178.867 379.826 177.553 379.113 176.327 379.381C175.101 379.648 174.427 380.794 174.822 381.94C175.217 383.086 176.531 383.798 177.758 383.531Z" fill="#9871F5"/>
<path d="M193.861 379.666C195.087 379.399 195.761 378.253 195.366 377.107C194.971 375.961 193.657 375.248 192.431 375.516C191.205 375.783 190.531 376.929 190.926 378.075C191.321 379.221 192.635 379.933 193.861 379.666Z" fill="#9871F5"/>
<path d="M209.978 375.798C211.204 375.531 211.877 374.385 211.482 373.239C211.087 372.093 209.773 371.381 208.547 371.648C207.321 371.915 206.647 373.061 207.042 374.207C207.437 375.353 208.751 376.066 209.978 375.798Z" fill="#9871F5"/>
<path d="M133.804 409.129C135.031 408.862 135.704 407.716 135.309 406.57C134.914 405.424 133.6 404.712 132.374 404.979C131.148 405.246 130.474 406.392 130.869 407.538C131.264 408.684 132.578 409.397 133.804 409.129Z" fill="#9871F5"/>
<path d="M149.92 405.262C151.146 404.994 151.82 403.848 151.425 402.702C151.03 401.556 149.716 400.844 148.49 401.111C147.264 401.379 146.59 402.525 146.985 403.671C147.38 404.817 148.694 405.529 149.92 405.262Z" fill="#9871F5"/>
<path d="M166.025 401.397C167.251 401.129 167.925 399.983 167.53 398.837C167.135 397.691 165.821 396.979 164.595 397.246C163.368 397.514 162.695 398.66 163.09 399.806C163.485 400.952 164.799 401.664 166.025 401.397Z" fill="#9871F5"/>
<path d="M182.141 397.529C183.367 397.262 184.041 396.116 183.646 394.97C183.251 393.824 181.937 393.111 180.711 393.379C179.485 393.646 178.811 394.792 179.206 395.938C179.601 397.084 180.915 397.796 182.141 397.529Z" fill="#9871F5"/>
<path d="M198.245 393.664C199.471 393.397 200.145 392.251 199.75 391.105C199.355 389.959 198.041 389.246 196.814 389.514C195.588 389.781 194.915 390.927 195.31 392.073C195.705 393.219 197.019 393.931 198.245 393.664Z" fill="#9871F5"/>
<path d="M214.361 389.796C215.587 389.529 216.261 388.383 215.866 387.237C215.471 386.091 214.157 385.379 212.931 385.646C211.705 385.913 211.031 387.059 211.426 388.205C211.821 389.351 213.135 390.064 214.361 389.796Z" fill="#9871F5"/>
<path d="M620.194 138.255C621.421 137.987 622.095 136.842 621.7 135.696C621.305 134.55 619.991 133.838 618.765 134.106C617.539 134.373 616.864 135.519 617.259 136.665C617.654 137.811 618.968 138.523 620.194 138.255Z" fill="#9871F5"/>
<path d="M636.298 134.39C637.524 134.122 638.199 132.977 637.804 131.831C637.409 130.685 636.095 129.973 634.869 130.24C633.642 130.508 632.968 131.654 633.363 132.8C633.758 133.945 635.072 134.658 636.298 134.39Z" fill="#9871F5"/>
<path d="M652.414 130.522C653.64 130.255 654.314 129.109 653.92 127.963C653.525 126.817 652.211 126.105 650.984 126.373C649.758 126.64 649.084 127.786 649.479 128.932C649.873 130.078 651.188 130.79 652.414 130.522Z" fill="#9871F5"/>
<path d="M624.581 152.264C625.807 151.997 626.481 150.851 626.087 149.705C625.692 148.559 624.378 147.847 623.151 148.115C621.925 148.382 621.251 149.528 621.646 150.674C622.04 151.82 623.355 152.532 624.581 152.264Z" fill="#9871F5"/>
<path d="M640.685 148.399C641.911 148.132 642.586 146.986 642.191 145.84C641.796 144.694 640.482 143.982 639.256 144.25C638.029 144.517 637.355 145.663 637.75 146.809C638.145 147.955 639.459 148.667 640.685 148.399Z" fill="#9871F5"/>
<path d="M656.801 144.532C658.027 144.264 658.701 143.118 658.306 141.972C657.912 140.827 656.598 140.115 655.371 140.382C654.145 140.65 653.471 141.795 653.866 142.941C654.26 144.087 655.574 144.799 656.801 144.532Z" fill="#9871F5"/>
<path d="M193.663 164.488C194.889 164.221 195.563 163.075 195.168 161.929C194.774 160.783 193.46 160.071 192.233 160.339C191.007 160.606 190.333 161.752 190.727 162.898C191.122 164.044 192.436 164.756 193.663 164.488Z" fill="#9871F5"/>
<path d="M209.766 160.623C210.992 160.356 211.667 159.21 211.272 158.064C210.877 156.918 209.563 156.206 208.337 156.474C207.11 156.741 206.436 157.887 206.831 159.033C207.226 160.179 208.54 160.891 209.766 160.623Z" fill="#9871F5"/>
<path d="M225.882 156.755C227.109 156.488 227.783 155.342 227.388 154.196C226.993 153.05 225.679 152.338 224.453 152.606C223.227 152.873 222.552 154.019 222.947 155.165C223.342 156.311 224.656 157.023 225.882 156.755Z" fill="#9871F5"/>
<path d="M198.049 178.497C199.276 178.229 199.95 177.083 199.555 175.938C199.16 174.792 197.846 174.08 196.62 174.347C195.394 174.615 194.719 175.761 195.114 176.906C195.509 178.052 196.823 178.764 198.049 178.497Z" fill="#9871F5"/>
<path d="M214.153 174.632C215.379 174.365 216.054 173.219 215.659 172.073C215.264 170.927 213.95 170.215 212.724 170.482C211.497 170.75 210.823 171.896 211.218 173.042C211.613 174.188 212.927 174.9 214.153 174.632Z" fill="#9871F5"/>
<path d="M230.27 170.764C231.496 170.497 232.17 169.351 231.776 168.205C231.381 167.059 230.067 166.347 228.841 166.615C227.614 166.882 226.94 168.028 227.335 169.174C227.73 170.32 229.044 171.032 230.27 170.764Z" fill="#9871F5"/>
<path d="M900.888 210.989C902.115 210.721 902.79 209.575 902.396 208.43C902.002 207.284 900.688 206.573 899.461 206.841C898.234 207.109 897.559 208.255 897.953 209.4C898.347 210.546 899.662 211.257 900.888 210.989Z" fill="#9871F5"/>
<path d="M905.276 224.998C906.503 224.73 907.178 223.584 906.784 222.439C906.39 221.293 905.076 220.582 903.849 220.85C902.622 221.118 901.947 222.263 902.341 223.409C902.735 224.554 904.049 225.266 905.276 224.998Z" fill="#9871F5"/>
<path d="M909.66 238.997C910.887 238.729 911.562 237.583 911.168 236.437C910.773 235.292 909.459 234.581 908.232 234.849C907.006 235.116 906.331 236.262 906.725 237.408C907.119 238.553 908.433 239.265 909.66 238.997Z" fill="#9871F5"/>
<path d="M914.047 253.005C915.274 252.738 915.949 251.592 915.555 250.446C915.16 249.301 913.846 248.589 912.619 248.857C911.393 249.125 910.717 250.271 911.112 251.417C911.506 252.562 912.82 253.273 914.047 253.005Z" fill="#9871F5"/>
<path d="M918.43 267.004C919.657 266.736 920.332 265.59 919.938 264.445C919.544 263.299 918.23 262.588 917.003 262.856C915.776 263.124 915.101 264.27 915.495 265.415C915.889 266.561 917.204 267.272 918.43 267.004Z" fill="#9871F5"/>
<path d="M922.817 281.012C924.044 280.745 924.719 279.599 924.325 278.453C923.931 277.308 922.617 276.596 921.39 276.864C920.163 277.132 919.488 278.278 919.882 279.424C920.276 280.569 921.59 281.28 922.817 281.012Z" fill="#9871F5"/>
<path d="M927.201 295.011C928.428 294.743 929.103 293.598 928.709 292.452C928.315 291.307 927 290.595 925.773 290.863C924.547 291.131 923.872 292.277 924.266 293.422C924.66 294.568 925.974 295.279 927.201 295.011Z" fill="#9871F5"/>
<path d="M884.773 214.857C886 214.589 886.675 213.443 886.281 212.297C885.887 211.152 884.573 210.441 883.346 210.709C882.119 210.976 881.444 212.122 881.838 213.268C882.232 214.413 883.546 215.125 884.773 214.857Z" fill="#9871F5"/>
<path d="M889.16 228.866C890.387 228.598 891.062 227.452 890.668 226.306C890.274 225.161 888.96 224.45 887.733 224.717C886.506 224.985 885.831 226.131 886.225 227.277C886.619 228.422 887.933 229.134 889.16 228.866Z" fill="#9871F5"/>
<path d="M893.544 242.864C894.771 242.597 895.446 241.451 895.051 240.305C894.657 239.16 893.343 238.448 892.116 238.716C890.889 238.984 890.214 240.13 890.608 241.276C891.003 242.421 892.317 243.132 893.544 242.864Z" fill="#9871F5"/>
<path d="M897.931 256.873C899.158 256.605 899.833 255.46 899.438 254.314C899.044 253.169 897.73 252.457 896.503 252.725C895.276 252.993 894.601 254.139 894.995 255.284C895.39 256.43 896.704 257.141 897.931 256.873Z" fill="#9871F5"/>
<path d="M902.314 270.872C903.541 270.604 904.216 269.458 903.822 268.313C903.428 267.167 902.114 266.456 900.887 266.724C899.66 266.992 898.985 268.137 899.379 269.283C899.773 270.428 901.087 271.14 902.314 270.872Z" fill="#9871F5"/>
<path d="M906.701 284.88C907.928 284.612 908.603 283.466 908.209 282.321C907.815 281.176 906.501 280.464 905.274 280.732C904.047 281 903.372 282.146 903.766 283.291C904.16 284.437 905.474 285.148 906.701 284.88Z" fill="#9871F5"/>
<path d="M911.085 298.879C912.312 298.611 912.987 297.465 912.592 296.32C912.198 295.174 910.884 294.463 909.657 294.731C908.43 294.999 907.755 296.145 908.15 297.29C908.544 298.436 909.858 299.147 911.085 298.879Z" fill="#9871F5"/>
<path d="M868.669 218.722C869.896 218.454 870.571 217.308 870.176 216.162C869.782 215.017 868.468 214.306 867.241 214.573C866.014 214.841 865.339 215.987 865.733 217.133C866.128 218.278 867.442 218.99 868.669 218.722Z" fill="#9871F5"/>
<path d="M873.056 232.731C874.283 232.463 874.958 231.317 874.563 230.171C874.169 229.026 872.855 228.314 871.628 228.582C870.401 228.85 869.726 229.996 870.12 231.142C870.515 232.287 871.829 232.998 873.056 232.731Z" fill="#9871F5"/>
<path d="M877.439 246.729C878.666 246.461 879.341 245.316 878.947 244.17C878.553 243.025 877.239 242.313 876.012 242.581C874.785 242.849 874.11 243.995 874.504 245.141C874.898 246.286 876.212 246.997 877.439 246.729Z" fill="#9871F5"/>
<path d="M881.826 260.738C883.053 260.47 883.728 259.324 883.334 258.179C882.94 257.034 881.626 256.322 880.399 256.59C879.172 256.858 878.497 258.004 878.891 259.149C879.285 260.295 880.599 261.006 881.826 260.738Z" fill="#9871F5"/>
<path d="M886.21 274.737C887.437 274.469 888.112 273.323 887.717 272.177C887.323 271.032 886.009 270.321 884.782 270.589C883.555 270.857 882.88 272.002 883.275 273.148C883.669 274.293 884.983 275.005 886.21 274.737Z" fill="#9871F5"/>
<path d="M890.597 288.745C891.824 288.477 892.499 287.331 892.104 286.186C891.71 285.041 890.396 284.329 889.169 284.597C887.942 284.865 887.267 286.011 887.661 287.156C888.056 288.302 889.37 289.013 890.597 288.745Z" fill="#9871F5"/>
<path d="M894.98 302.744C896.207 302.476 896.882 301.33 896.488 300.185C896.094 299.039 894.78 298.328 893.553 298.596C892.326 298.864 891.651 300.01 892.045 301.155C892.439 302.301 893.753 303.012 894.98 302.744Z" fill="#9871F5"/>
<path d="M852.553 222.589C853.78 222.322 854.455 221.176 854.061 220.03C853.667 218.885 852.353 218.173 851.126 218.441C849.899 218.709 849.224 219.855 849.618 221.001C850.012 222.146 851.326 222.857 852.553 222.589Z" fill="#9871F5"/>
<path d="M856.939 236.598C858.166 236.33 858.841 235.185 858.447 234.039C858.053 232.894 856.739 232.182 855.512 232.45C854.285 232.718 853.61 233.864 854.004 235.009C854.398 236.155 855.713 236.866 856.939 236.598Z" fill="#9871F5"/>
<path d="M861.323 250.597C862.55 250.329 863.225 249.183 862.831 248.038C862.437 246.893 861.122 246.181 859.896 246.449C858.669 246.717 857.994 247.863 858.388 249.008C858.782 250.154 860.096 250.865 861.323 250.597Z" fill="#9871F5"/>
<path d="M865.71 264.606C866.937 264.338 867.612 263.192 867.218 262.047C866.824 260.901 865.509 260.19 864.283 260.458C863.056 260.726 862.381 261.872 862.775 263.017C863.169 264.163 864.483 264.874 865.71 264.606Z" fill="#9871F5"/>
<path d="M870.093 278.604C871.32 278.337 871.995 277.191 871.601 276.045C871.207 274.9 869.893 274.188 868.666 274.456C867.439 274.724 866.764 275.87 867.158 277.016C867.552 278.161 868.867 278.872 870.093 278.604Z" fill="#9871F5"/>
<path d="M874.48 292.613C875.707 292.345 876.382 291.199 875.988 290.054C875.594 288.908 874.28 288.197 873.053 288.465C871.826 288.733 871.151 289.879 871.545 291.024C871.939 292.17 873.254 292.881 874.48 292.613Z" fill="#9871F5"/>
<path d="M878.864 306.612C880.091 306.344 880.766 305.198 880.372 304.053C879.978 302.907 878.663 302.196 877.437 302.464C876.21 302.732 875.535 303.877 875.929 305.023C876.323 306.168 877.637 306.88 878.864 306.612Z" fill="#9871F5"/>
</svg>
